<svg enable-background="new 0 0 512 512" height="300" viewBox="0 0 512 512" width="300" xmlns="http://www.w3.org/2000/svg" version="1.1" xmlns:xlink="http://www.w3.org/1999/xlink" xmlns:svgjs="http://svgjs.dev/svgjs"><g transform="matrix(1,0,0,1,0,0)"><g id="_x32_9_Cassette"><g><path d="m503.012 118.418v275.162c0 19.27-15.622 34.892-34.892 34.892h-424.241c-19.27 0-34.892-15.622-34.892-34.892v-275.162c0-19.27 15.622-34.892 34.892-34.892h424.24c19.271 0 34.893 15.622 34.893 34.892z" fill="#fefdfeff" data-original-color="#fefdfeff" stroke="none"/><path d="m502.973 118.398v275.219c0 19.203-15.618 34.821-34.821 34.821h-424.303c-19.044 0-34.582-15.299-34.9-34.263h238.088c95.219 0 172.431-77.211 172.431-172.51 0-56.574-27.251-106.693-69.323-138.167h118.008c19.202 0 34.82 15.617 34.82 34.9z" fill="#4f01a3ff" opacity=".1" data-original-color="#3f8cf4ff" stroke="none"/><path d="m61.326 428.472c0-35.48 28.762-64.242 64.242-64.242h260.865c35.48 0 64.242 28.762 64.242 64.242z" fill="#d3aef5ff" data-original-color="#b8daffff" stroke="none"/><path d="m61.326 135.863h389.349v180.148h-389.349z" fill="#d3aef5ff" data-original-color="#b8daffff" stroke="none"/><path d="m190.304 225.894c0 20.412-16.487 36.898-36.811 36.898-20.412 0-36.899-16.487-36.899-36.898 0-20.325 16.487-36.811 36.899-36.811 20.324-.001 36.811 16.486 36.811 36.811z" fill="#fefdfeff" data-original-color="#fefdfeff" stroke="none"/><path d="m395.406 225.894c0 20.412-16.487 36.898-36.811 36.898-20.412 0-36.899-16.487-36.899-36.898 0-20.325 16.487-36.811 36.899-36.811 20.324-.001 36.811 16.486 36.811 36.811z" fill="#fefdfeff" data-original-color="#fefdfeff" stroke="none"/><g fill="#3f8cf4"><path d="m468.12 75.558h-424.24c-23.632 0-42.86 19.228-42.86 42.86v275.165c0 23.632 19.228 42.86 42.86 42.86h424.241c23.632 0 42.86-19.228 42.86-42.86v-275.166c-.001-23.632-19.229-42.859-42.861-42.859zm-398.266 344.948c3.883-27.274 27.39-48.307 55.715-48.307h260.863c28.324 0 51.832 21.033 55.715 48.307zm425.19-26.923c0 14.847-12.077 26.924-26.924 26.924h-9.942c-3.982-36.078-34.625-64.243-71.747-64.243h-260.862c-37.122 0-67.765 28.165-71.747 64.243h-9.942c-14.847 0-26.924-12.077-26.924-26.924v-275.166c0-14.847 12.077-26.924 26.924-26.924h424.24c14.847 0 26.924 12.077 26.924 26.924z" fill="#4f01a3ff" data-original-color="#3f8cf4ff" stroke="none"/><path d="m450.675 127.895h-389.35c-4.404 0-7.968 3.564-7.968 7.968v180.147c0 4.404 3.564 7.968 7.968 7.968h389.349c4.404 0 7.968-3.564 7.968-7.968v-180.147c.001-4.404-3.563-7.968-7.967-7.968zm-7.969 180.147h-373.412v-164.21h373.413v164.21z" fill="#4f01a3ff" data-original-color="#3f8cf4ff" stroke="none"/><path d="m153.496 270.761c24.69 0 44.774-20.13 44.774-44.867 0-24.69-20.084-44.782-44.774-44.782-24.737 0-44.867 20.092-44.867 44.782-.001 24.737 20.13 44.867 44.867 44.867zm0-73.713c15.897 0 28.838 12.94 28.838 28.846 0 15.952-12.94 28.931-28.838 28.931-15.952 0-28.931-12.979-28.931-28.931 0-15.905 12.979-28.846 28.931-28.846z" fill="#4f01a3ff" data-original-color="#3f8cf4ff" stroke="none"/><path d="m358.598 270.761c24.69 0 44.774-20.13 44.774-44.867 0-24.69-20.084-44.782-44.774-44.782-24.737 0-44.867 20.092-44.867 44.782-.001 24.737 20.129 44.867 44.867 44.867zm0-73.713c15.897 0 28.838 12.94 28.838 28.846 0 15.952-12.94 28.931-28.838 28.931-15.952 0-28.931-12.979-28.931-28.931-.001-15.905 12.979-28.846 28.931-28.846z" fill="#4f01a3ff" data-original-color="#3f8cf4ff" stroke="none"/><path d="m232.438 233.909h47.124c4.404 0 7.968-3.564 7.968-7.968s-3.564-7.968-7.968-7.968h-47.124c-4.404 0-7.968 3.564-7.968 7.968s3.564 7.968 7.968 7.968z" fill="#4f01a3ff" data-original-color="#3f8cf4ff" stroke="none"/><path d="m134.47 388.385h-8.24c-4.404 0-7.968 3.564-7.968 7.968s3.564 7.968 7.968 7.968h8.24c4.404 0 7.968-3.564 7.968-7.968s-3.563-7.968-7.968-7.968z" fill="#4f01a3ff" data-original-color="#3f8cf4ff" stroke="none"/><path d="m385.77 388.385h-8.24c-4.404 0-7.968 3.564-7.968 7.968s3.564 7.968 7.968 7.968h8.24c4.404 0 7.968-3.564 7.968-7.968s-3.564-7.968-7.968-7.968z" fill="#4f01a3ff" data-original-color="#3f8cf4ff" stroke="none"/></g></g></g></g></svg>